<svg width="45" height="43" viewBox="0 0 45 43" fill="none" xmlns="http://www.w3.org/2000/svg">
<path fill-rule="evenodd" clip-rule="evenodd" d="M31.1625 0.000359263C32.5823 0.000359263 33.9998 0.200609 35.3475 0.65286C43.6523 3.35286 46.6448 12.4654 44.145 20.4304C42.7275 24.5006 40.41 28.2154 37.3748 31.2506C33.03 35.4581 28.2623 39.1931 23.13 42.4106L22.5675 42.7504L21.9825 42.3881C16.8323 39.1931 12.0375 35.4581 7.65229 31.2281C4.63729 28.1929 2.31754 24.5006 0.877537 20.4304C-1.66496 12.4654 1.32754 3.35286 9.72228 0.60561C10.3748 0.380609 11.0475 0.223109 11.7225 0.135359H11.9925C12.6248 0.0431093 13.2525 0.000359263 13.8825 0.000359263H14.13C15.5475 0.0431093 16.92 0.290609 18.2498 0.74286H18.3825C18.4725 0.78561 18.54 0.83286 18.585 0.87561C19.0823 1.03536 19.5525 1.21536 20.0025 1.46286L20.8575 1.84536C21.0641 1.95555 21.296 2.12391 21.4964 2.26942C21.6234 2.36161 21.7378 2.44463 21.825 2.49786C21.8617 2.51952 21.8991 2.54131 21.9367 2.56327C22.1296 2.67588 22.3306 2.7932 22.5 2.92311C24.9998 1.01286 28.035 -0.0221407 31.1625 0.000359263ZM37.1475 16.2004C38.07 16.1756 38.8575 15.4354 38.925 14.4881V14.2204C38.9925 11.0681 37.0823 8.21286 34.1776 7.11036C33.2551 6.79311 32.2426 7.29036 31.9051 8.23536C31.5901 9.18036 32.0851 10.2154 33.0301 10.5506C34.4723 11.0906 35.4376 12.5104 35.4376 14.0831V14.1529C35.3948 14.6681 35.5501 15.1654 35.8651 15.5479C36.18 15.9304 36.6525 16.1531 37.1475 16.2004Z" fill="#69B99D"/>
</svg>
